<?xml version="1.0" standalone="no"?><!DOCTYPE svg PUBLIC "-//W3C//DTD SVG 1.1//EN" "http://www.w3.org/Graphics/SVG/1.1/DTD/svg11.dtd"><svg t="1601342626090" class="icon" viewBox="0 0 1024 1024" version="1.1" xmlns="http://www.w3.org/2000/svg" p-id="1555" xmlns:xlink="http://www.w3.org/1999/xlink" width="48" height="48"><defs><style type="text/css"></style></defs><path d="M123.873626 497.186356l72.578246-72.578246 69.408457 69.409383-72.578245 72.57732zM202.154343 575.457812l72.577319-72.57732 92.582268 92.581342-72.577319 72.578246zM303.602387 676.916043l72.578246-72.578246 98.448645 98.448645-72.578245 72.578246zM283.595587 494.019345L382.045158 395.5707l92.582268 92.581342-98.449571 98.449571zM205.322279 415.741407l98.448645-98.449571 69.409383 69.409383-98.449571 98.448645zM414.092154 206.96968l78.445549-78.444623 69.408457 69.408457-78.444623 78.445549zM492.369166 702.791073l98.449572-98.449572 81.607003 81.607929-98.448646 98.448646zM312.630219 308.419577l92.582268-92.582268 69.409383 69.408457-92.582268 92.582268zM410.920514 784.236021l72.578245-72.578246 81.607929 81.607929-72.578245 72.578246zM385.05104 595.470168l98.448645-98.448645 98.449572 98.448645-98.449572 98.449572zM492.365462 488.15482l92.582268-92.582268L683.398228 494.022123l-92.582269 92.582268zM701.139967 494.019345l78.443697-78.444623 81.608855 81.607003-78.445548 78.445549zM593.820915 386.699367l78.445549-78.445549 98.448645 98.449571-78.444622 78.444623zM599.693775 595.475724l92.582268-92.582268 81.607003 81.607929-92.581342 92.581342zM492.37287 285.242062l78.444623-78.445549 92.582268 92.582268-78.444623 78.444623zM390.920195 386.691033l92.582268-92.582268 92.582268 92.582268-92.582268 92.582268z" fill="#E60012" p-id="1556"></path><path d="M468.85643 0h47.060662v232.349286h-47.060662zM407.433098 843.165563h180.834437v180.834437H407.433098z" fill="#E60012" p-id="1557"></path><path d="M425.360969 843.165563a72.489347 23.234003 0 1 0 144.978695 0 72.489347 23.234003 0 1 0-144.978695 0Z" fill="#E60012" p-id="1558"></path><path d="M196.44076 424.60348l8.872259-8.872259 69.408457 69.408457-8.872259 8.873185zM193.280232 566.594813l72.578245-72.578246 8.872259 8.872259-72.577319 72.578246z" fill="#E2E2E2" p-id="1559"></path><path d="M265.853847 494.018419l8.872259-8.872259 8.873185 8.871333-8.873185 8.873185zM483.494129 711.660553l8.872259-8.873185 81.607929 81.60793-8.872259 8.871332zM376.176003 604.339649l8.872259-8.873185 98.449571 98.449571-8.873185 8.872259z" fill="#E2E2E2" p-id="1560"></path><path d="M274.72055 502.885122l8.873185-8.873185 92.581342 92.582268-8.871333 8.872259zM382.04701 395.564218l8.873185-8.872259 92.581342 92.582268-8.871333 8.872259zM590.82059 604.335945l8.872259-8.872259 81.607929 81.607003-8.872259 8.873185zM483.502463 497.015041l8.872259-8.871333L590.824294 586.591427l-8.873185 8.871333zM303.773702 317.28628l8.872259-8.872259 69.408458 69.408457-8.871333 8.872259zM483.502463 294.107839l8.873185-8.872259 92.581342 92.582268-8.871333 8.871333zM584.948656 395.571626l8.872259-8.872259 98.449572 98.449571-8.873185 8.871333zM692.266782 502.89253l8.872259-8.873185 81.60793 81.607929-8.872259 8.872259zM405.213413 215.836383l8.872259-8.872259 69.408457 69.408457-8.872259 8.872259z" fill="#E2E2E2" p-id="1561"></path><path d="M590.82059 586.606243l92.582268-92.582268 8.872259 8.873185-92.581342 92.582268zM692.276043 485.14153l78.444623-78.445549 8.873185 8.873185-78.445549 78.444623zM402.048255 775.367466l72.577319-72.578246 8.873185 8.872259-72.578245 72.578246zM483.498759 693.918814l98.449572-98.448646 8.872259 8.872259-98.448646 98.449572z" fill="#E2E2E2" p-id="1562"></path><path d="M474.63113 702.791073l8.871333-8.872259 8.873185 8.871333-8.872259 8.873185zM581.940922 595.473872l8.873185-8.873185 8.872259 8.873185-8.872259 8.871333zM683.403784 494.023049l8.871333-8.871333 8.873185 8.871333-8.872259 8.873185zM376.179707 586.601613l98.448645-98.448645 8.871333 8.872259L385.05104 595.474798zM584.956064 377.82433l78.444623-78.445549 8.872259 8.873185-78.444623 78.444623zM483.503389 479.274227l92.582268-92.583194 8.872259 8.873185-92.582268 92.582268zM294.737537 668.041006l72.577319-72.578246 8.873185 8.872259-72.578245 72.578246z" fill="#E2E2E2" p-id="1563"></path><path d="M367.303744 595.46739l8.873185-8.872259 8.871333 8.871333-8.871333 8.873185zM474.630204 488.147412l8.873185-8.873185 8.871333 8.873185-8.871333 8.871333zM576.085657 386.690107l8.873185-8.871333 8.871333 8.871333-8.871333 8.873185zM382.053492 377.83359l92.582269-92.582268 8.871333 8.873185-92.581343 92.582268zM274.722402 485.14616L373.170121 386.697515l8.873185 8.872259-98.449571 98.449571zM483.498759 276.368877l78.445549-78.445549 8.872259 8.873185-78.444623 78.444623z" fill="#E2E2E2" p-id="1564"></path><path d="M373.173825 386.701219l8.872259-8.873185 8.873185 8.873185-8.873185 8.871333zM474.635761 285.250396l8.872259-8.871333 8.873185 8.871333-8.873185 8.873185zM415.063556 870.214795h6.33402v153.775945h-6.33402zM432.815482 870.214795h6.334021v153.775945h-6.334021zM450.558148 870.214795h6.334021v153.775945h-6.334021zM468.300814 870.214795h6.334021v153.775945h-6.334021zM486.05274 870.214795h6.334021v153.775945h-6.334021zM503.795406 870.214795h6.334021v153.775945h-6.334021zM521.547332 870.214795h6.334021v153.775945h-6.334021zM539.289998 870.214795h6.334021v153.775945h-6.334021zM557.041924 870.214795h6.334021v153.775945h-6.334021zM574.78459 870.214795h6.334021v153.775945h-6.334021z" fill="#E2E2E2" p-id="1565"></path></svg>